<svg width="1200" height="720" viewBox="0 0 1200 720" fill="none" xmlns="http://www.w3.org/2000/svg">
  <rect width="1200" height="720" rx="48" fill="#F8FBFF"/>
  <circle cx="210" cy="130" r="178" fill="#C7D2FE" opacity=".48"/>
  <circle cx="1014" cy="166" r="202" fill="#FBCFE8" opacity=".64"/>
  <circle cx="880" cy="610" r="158" fill="#BAE6FD" opacity=".62"/>
  <rect x="234" y="190" width="734" height="350" rx="76" fill="white" opacity=".9"/>
  <path d="M520 276c-62 26-106 88-106 160 0 24 5 46 14 67-74-28-126-99-126-182 0-107 87-194 194-194 60 0 114 27 150 70-43-2-85 6-126 23v56Z" fill="#FEF3C7"/>
  <path d="M646 288h18M752 252h18M792 358h18M680 460h18" stroke="#64748B" stroke-width="18" stroke-linecap="round"/>
  <path d="M388 562h424" stroke="#FDA4AF" stroke-width="18" stroke-linecap="round" opacity=".55"/>
  <text x="600" y="668" text-anchor="middle" fill="#334155" font-family="Arial, sans-serif" font-size="34" font-weight="700">Somn, ritm și liniște</text>
</svg>
